# xmcd CD database file
#
# Track frame offsets:
#	150
#	13159
#	23964
#	37118
#	52056
#	66582
#	80329
#	93628
#	108370
#	120906
#	132334
#	144170
#	157203
#	171720
#
# Disc length: 2492 seconds
#
# Revision: 0
# Processed by: cddbd v1.5.2PL0 Copyright (c) Steve Scherf et al.
# Submitted via: CDex 1.51
#
DISCID=cc09ba0e
DTITLE=Woody Herman - Giants Of Jazz
DYEAR=1900
DGENRE=Jazz
TTITLE0=Lemon Drop
TTITLE1=Blowin' Up A Storm
TTITLE2=Four Others
TTITLE3=Mulligan Tawny
TTITLE4=Early Autumn
TTITLE5=Keeper Of The Flame
TTITLE6=Tenderly
TTITLE7=Four Brothers
TTITLE8=The Third Herd
TTITLE9=Stompin' At The Savoy
TTITLE10=Moten Swing
TTITLE11=Sonny Speaks
TTITLE12=Rhapsody In Wood
TTITLE13=Goosey Gander
EXTD=
EXTT0=
EXTT1=
EXTT2=
EXTT3=
EXTT4=
EXTT5=
EXTT6=
EXTT7=
EXTT8=
EXTT9=
EXTT10=
EXTT11=
EXTT12=
EXTT13=
PLAYORDER=
